<?xml version="1.0" encoding="UTF-8" standalone="no"?>
<!-- Created with Inkscape (http://www.inkscape.org/) -->

<svg
   width="520"
   height="520"
   viewBox="0 0 137.58333 137.58334"
   version="1.1"
   id="svg5"
   inkscape:version="1.1.2 (b8e25be833, 2022-02-05)"
   sodipodi:docname="Healthsure logo Final.svg"
   inkscape:export-filename="C:\Users\KP\Desktop\logo.png"
   inkscape:export-xdpi="96"
   inkscape:export-ydpi="96"
   xmlns:inkscape="http://www.inkscape.org/namespaces/inkscape"
   xmlns:sodipodi="http://sodipodi.sourceforge.net/DTD/sodipodi-0.dtd"
   xmlns="http://www.w3.org/2000/svg"
   xmlns:svg="http://www.w3.org/2000/svg">
  <sodipodi:namedview
     id="namedview7"
     pagecolor="#ffffff"
     bordercolor="#666666"
     borderopacity="1.0"
     inkscape:pageshadow="2"
     inkscape:pageopacity="0.0"
     inkscape:pagecheckerboard="0"
     inkscape:document-units="mm"
     showgrid="false"
     units="px"
     inkscape:zoom="1"
     inkscape:cx="388.5"
     inkscape:cy="354"
     inkscape:window-width="1920"
     inkscape:window-height="1009"
     inkscape:window-x="-8"
     inkscape:window-y="-8"
     inkscape:window-maximized="1"
     inkscape:current-layer="layer1" />
  <defs
     id="defs2" />
  <g
     inkscape:label="Layer 1"
     inkscape:groupmode="layer"
     id="layer1">
    <g
       id="g23"
       transform="matrix(0.31199553,0,0,0.31199553,-86.987991,-64.560152)"
       inkscape:export-filename="C:\Users\KP\g23.png"
       inkscape:export-xdpi="96"
       inkscape:export-ydpi="96">
      <path
         fill="#000000"
         opacity="1"
         stroke="none"
         d="m 603.81879,471.36008 c -16.9729,0.003 -33.46711,-0.0167 -49.96112,0.0163 -8.15516,0.0163 -10.49494,2.31775 -10.51008,10.33557 -0.0321,16.99387 0.002,33.98786 -0.0237,50.98175 -0.0103,6.83228 -1.77679,8.633 -8.5122,8.63776 -23.49158,0.0166 -46.98319,0.005 -70.47477,-0.0129 -7.37039,-0.006 -9.24991,-2.3742 -9.18942,-9.64886 0.14664,-17.64972 0.0302,-35.30323 -0.1618,-52.95325 -0.0577,-5.3024 -2.66263,-7.27914 -9.13938,-7.32065 -13.32803,-0.0854 -26.65695,-0.0333 -39.9855,-0.0384 -3.66535,-10e-4 -7.33075,0.004 -10.99606,-0.009 -8.0488,-0.0288 -9.73896,-1.67206 -9.74897,-9.57175 -0.0171,-13.49515 -0.005,-26.99027 -0.007,-40.48541 -0.002,-9.66318 -0.0731,-19.32691 0.0118,-28.98929 0.0591,-6.72778 2.00369,-8.59116 8.69696,-8.60214 16.82727,-0.0277 33.65466,-0.003 50.48193,-0.0293 9.02607,-0.0142 11.03458,-2.40161 10.91675,-11.27292 -0.22571,-16.99094 -0.18802,-33.98669 -0.10415,-50.97968 0.0275,-5.57464 2.40976,-7.70471 8.10986,-7.71273 23.99136,-0.0338 47.98285,-0.0391 71.97424,0.002 6.05786,0.0104 8.11316,2.0784 8.12793,8.11291 0.0419,17.16043 -0.01,34.32102 0.0201,51.48148 0.0141,8.08502 2.29621,10.3515 10.41669,10.36667 16.9939,0.0318 33.98791,-0.004 50.98181,0.0272 6.88416,0.0128 8.57483,1.69479 8.58203,8.55603 0.0243,23.32495 0.0178,46.64999 0.004,69.97497 -0.004,7.51871 -1.48743,8.99103 -9.51007,9.13395 z"
         id="path9"
         style="fill:#0071bd;fill-opacity:1" />
      <path
         fill="#000000"
         opacity="1"
         stroke="none"
         d="m 536.36707,636.53027 c -66.75187,10.0506 -126.06882,-5.42859 -177.05912,-49.55676 -33.05578,-28.60724 -54.50018,-64.71014 -65.68231,-106.88989 -1.34473,-5.0723 -3.38977,-10.21884 -2.50183,-15.6424 1.46985,-8.97836 8.48798,-15.29208 16.98865,-15.59637 8.6492,-0.3096 16.11679,5.6774 18.09893,14.87716 4.17511,19.37806 11.21491,37.6186 21.55314,54.52622 23.08185,37.74921 55.75717,63.41431 97.68383,77.49005 22.79691,7.65344 46.26572,9.78601 69.97553,7.76556 28.3128,-2.41265 54.53235,-11.73077 78.5816,-26.98217 1.86408,-1.18225 2.71405,-2.30408 2.08069,-4.85236 -7.61322,-30.63269 11.76917,-59.31927 45.07306,-61.7316 3.10462,-0.22488 6.40308,0.0681 9.38855,0.91071 3.66235,1.03366 5.07037,-0.66672 6.50122,-3.47763 7.14417,-14.03433 12.30426,-28.75879 15.53308,-44.15451 1.17609,-5.60779 4.16028,-9.76447 9.23914,-12.31381 6.77795,-3.40226 13.35132,-2.70261 19.20196,1.97696 6.23706,4.98873 7.72193,11.69854 6.01233,19.33093 -4.3916,19.60617 -11.04229,38.38546 -20.71844,56.0162 -1.7052,3.10694 -1.78882,5.52216 -0.18079,8.74652 9.36347,18.77478 6.08765,40.45294 -8.12091,55.607 -13.25995,14.14233 -34.93408,18.69092 -53.87665,11.02966 -2.87958,-1.16461 -4.80072,-0.85992 -7.27588,0.78796 -24.44079,16.27137 -51.19604,26.82764 -80.49578,32.13257 z"
         id="path11"
         style="fill:#01a89e;fill-opacity:1" />
      <path
         fill="#000000"
         opacity="1"
         stroke="none"
         d="m 603.5011,284.50037 c -26.27973,-18.96885 -55.34216,-30.02579 -87.13007,-32.91613 -33.31296,-3.02899 -65.37146,2.5407 -95.57333,17.45845 -3.19367,1.57746 -4.45194,3.35938 -3.84741,7.39786 3.9274,26.23661 -11.9224,49.32059 -37.82361,55.13159 -7.33042,1.64463 -14.96198,1.61731 -22.24323,-0.50998 -4.06582,-1.18786 -5.94177,0.10495 -7.98941,3.4376 -9.94018,16.17855 -16.93921,33.53353 -21.56167,51.90133 -2.66284,10.58106 -11.22046,16.32193 -21.11753,14.21555 -10.16839,-2.16413 -15.82013,-10.97812 -13.40103,-21.98798 5.08817,-23.15768 14.31461,-44.67868 27.13742,-64.58215 3.32566,-5.16208 4.63321,-9.47324 2.6684,-15.92594 -8.65116,-28.41159 8.87988,-56.85026 37.89777,-62.08447 10.18811,-1.83774 20.33654,-0.5887 29.62933,4.31438 3.58197,1.88992 6.33209,1.42662 9.6875,-0.37439 19.20794,-10.30985 39.58523,-17.56795 61.05264,-21.18198 53.61765,-9.02647 104.25931,-0.52685 150.5311,28.50583 48.90527,30.68498 80.40411,74.4464 94.35559,130.61464 2.63483,10.60791 -2.58905,20.10104 -12.10083,22.41779 -10.73218,2.61401 -19.3291,-2.77744 -22.23248,-13.71003 -1.53583,-5.78323 -3.25299,-11.53335 -5.20887,-17.18756 -12.00775,-34.71432 -32.88696,-62.92306 -62.73028,-84.93441 z"
         id="path13"
         style="fill:#65ce3e;fill-opacity:1" />
    </g>
  </g>
</svg>
