<?xml version="1.0" encoding="UTF-8" standalone="no"?>
<!-- Created with Inkscape (http://www.inkscape.org/) -->

<svg
   width="3500"
   height="520"
   viewBox="0 0 926.04165 137.58334"
   version="1.1"
   id="svg833"
   inkscape:version="1.1.2 (b8e25be833, 2022-02-05)"
   sodipodi:docname="logo_HS.svg"
   xmlns:inkscape="http://www.inkscape.org/namespaces/inkscape"
   xmlns:sodipodi="http://sodipodi.sourceforge.net/DTD/sodipodi-0.dtd"
   xmlns="http://www.w3.org/2000/svg"
   xmlns:svg="http://www.w3.org/2000/svg">
  <sodipodi:namedview
     id="namedview835"
     pagecolor="#ffffff"
     bordercolor="#666666"
     borderopacity="1.0"
     inkscape:pageshadow="2"
     inkscape:pageopacity="0.0"
     inkscape:pagecheckerboard="0"
     inkscape:document-units="mm"
     showgrid="false"
     units="px"
     inkscape:zoom="0.183293"
     inkscape:cx="2245.0394"
     inkscape:cy="-463.73839"
     inkscape:window-width="1920"
     inkscape:window-height="1009"
     inkscape:window-x="-8"
     inkscape:window-y="-8"
     inkscape:window-maximized="1"
     inkscape:current-layer="layer1" />
  <defs
     id="defs830" />
  <g
     inkscape:label="Layer 1"
     inkscape:groupmode="layer"
     id="layer1">
    <g
       id="g1338">
      <g
         id="g23"
         transform="matrix(0.31199553,0,0,0.31199553,-67.962766,-64.560152)"
         inkscape:export-filename="C:\Users\KP\g23.png"
         inkscape:export-xdpi="96"
         inkscape:export-ydpi="96">
        <path
           fill="#000000"
           opacity="1"
           stroke="none"
           d="m 603.81879,471.36008 c -16.9729,0.003 -33.46711,-0.0167 -49.96112,0.0163 -8.15516,0.0163 -10.49494,2.31775 -10.51008,10.33557 -0.0321,16.99387 0.002,33.98786 -0.0237,50.98175 -0.0103,6.83228 -1.77679,8.633 -8.5122,8.63776 -23.49158,0.0166 -46.98319,0.005 -70.47477,-0.0129 -7.37039,-0.006 -9.24991,-2.3742 -9.18942,-9.64886 0.14664,-17.64972 0.0302,-35.30323 -0.1618,-52.95325 -0.0577,-5.3024 -2.66263,-7.27914 -9.13938,-7.32065 -13.32803,-0.0854 -26.65695,-0.0333 -39.9855,-0.0384 -3.66535,-10e-4 -7.33075,0.004 -10.99606,-0.009 -8.0488,-0.0288 -9.73896,-1.67206 -9.74897,-9.57175 -0.0171,-13.49515 -0.005,-26.99027 -0.007,-40.48541 -0.002,-9.66318 -0.0731,-19.32691 0.0118,-28.98929 0.0591,-6.72778 2.00369,-8.59116 8.69696,-8.60214 16.82727,-0.0277 33.65466,-0.003 50.48193,-0.0293 9.02607,-0.0142 11.03458,-2.40161 10.91675,-11.27292 -0.22571,-16.99094 -0.18802,-33.98669 -0.10415,-50.97968 0.0275,-5.57464 2.40976,-7.70471 8.10986,-7.71273 23.99136,-0.0338 47.98285,-0.0391 71.97424,0.002 6.05786,0.0104 8.11316,2.0784 8.12793,8.11291 0.0419,17.16043 -0.01,34.32102 0.0201,51.48148 0.0141,8.08502 2.29621,10.3515 10.41669,10.36667 16.9939,0.0318 33.98791,-0.004 50.98181,0.0272 6.88416,0.0128 8.57483,1.69479 8.58203,8.55603 0.0243,23.32495 0.0178,46.64999 0.004,69.97497 -0.004,7.51871 -1.48743,8.99103 -9.51007,9.13395 z"
           id="path9"
           style="fill:#0071bd;fill-opacity:1" />
        <path
           fill="#000000"
           opacity="1"
           stroke="none"
           d="m 536.36707,636.53027 c -66.75187,10.0506 -126.06882,-5.42859 -177.05912,-49.55676 -33.05578,-28.60724 -54.50018,-64.71014 -65.68231,-106.88989 -1.34473,-5.0723 -3.38977,-10.21884 -2.50183,-15.6424 1.46985,-8.97836 8.48798,-15.29208 16.98865,-15.59637 8.6492,-0.3096 16.11679,5.6774 18.09893,14.87716 4.17511,19.37806 11.21491,37.6186 21.55314,54.52622 23.08185,37.74921 55.75717,63.41431 97.68383,77.49005 22.79691,7.65344 46.26572,9.78601 69.97553,7.76556 28.3128,-2.41265 54.53235,-11.73077 78.5816,-26.98217 1.86408,-1.18225 2.71405,-2.30408 2.08069,-4.85236 -7.61322,-30.63269 11.76917,-59.31927 45.07306,-61.7316 3.10462,-0.22488 6.40308,0.0681 9.38855,0.91071 3.66235,1.03366 5.07037,-0.66672 6.50122,-3.47763 7.14417,-14.03433 12.30426,-28.75879 15.53308,-44.15451 1.17609,-5.60779 4.16028,-9.76447 9.23914,-12.31381 6.77795,-3.40226 13.35132,-2.70261 19.20196,1.97696 6.23706,4.98873 7.72193,11.69854 6.01233,19.33093 -4.3916,19.60617 -11.04229,38.38546 -20.71844,56.0162 -1.7052,3.10694 -1.78882,5.52216 -0.18079,8.74652 9.36347,18.77478 6.08765,40.45294 -8.12091,55.607 -13.25995,14.14233 -34.93408,18.69092 -53.87665,11.02966 -2.87958,-1.16461 -4.80072,-0.85992 -7.27588,0.78796 -24.44079,16.27137 -51.19604,26.82764 -80.49578,32.13257 z"
           id="path11"
           style="fill:#01a89e;fill-opacity:1" />
        <path
           fill="#000000"
           opacity="1"
           stroke="none"
           d="m 603.5011,284.50037 c -26.27973,-18.96885 -55.34216,-30.02579 -87.13007,-32.91613 -33.31296,-3.02899 -65.37146,2.5407 -95.57333,17.45845 -3.19367,1.57746 -4.45194,3.35938 -3.84741,7.39786 3.9274,26.23661 -11.9224,49.32059 -37.82361,55.13159 -7.33042,1.64463 -14.96198,1.61731 -22.24323,-0.50998 -4.06582,-1.18786 -5.94177,0.10495 -7.98941,3.4376 -9.94018,16.17855 -16.93921,33.53353 -21.56167,51.90133 -2.66284,10.58106 -11.22046,16.32193 -21.11753,14.21555 -10.16839,-2.16413 -15.82013,-10.97812 -13.40103,-21.98798 5.08817,-23.15768 14.31461,-44.67868 27.13742,-64.58215 3.32566,-5.16208 4.63321,-9.47324 2.6684,-15.92594 -8.65116,-28.41159 8.87988,-56.85026 37.89777,-62.08447 10.18811,-1.83774 20.33654,-0.5887 29.62933,4.31438 3.58197,1.88992 6.33209,1.42662 9.6875,-0.37439 19.20794,-10.30985 39.58523,-17.56795 61.05264,-21.18198 53.61765,-9.02647 104.25931,-0.52685 150.5311,28.50583 48.90527,30.68498 80.40411,74.4464 94.35559,130.61464 2.63483,10.60791 -2.58905,20.10104 -12.10083,22.41779 -10.73218,2.61401 -19.3291,-2.77744 -22.23248,-13.71003 -1.53583,-5.78323 -3.25299,-11.53335 -5.20887,-17.18756 -12.00775,-34.71432 -32.88696,-62.92306 -62.73028,-84.93441 z"
           id="path13"
           style="fill:#65ce3e;fill-opacity:1" />
      </g>
      <g
         aria-label="Health"
         id="text2763"
         style="font-size:135.919px;line-height:1.25;font-family:'Arial Rounded MT Bold';-inkscape-font-specification:'Arial Rounded MT Bold, Normal';fill:#0071bd;stroke-width:3.398">
        <path
           d="M 193.21865,30.431715 V 58.30573 H 235.7597 V 30.431715 q 0,-5.973004 2.65467,-8.959505 2.72104,-2.986502 7.10124,-2.986502 4.44657,0 7.1676,2.986502 2.78741,2.920135 2.78741,8.959505 v 76.653545 q 0,6.03937 -2.78741,9.02587 -2.7874,2.9865 -7.1676,2.9865 -4.44657,0 -7.10124,-2.9865 -2.65467,-3.05287 -2.65467,-9.02587 V 74.366471 h -42.54105 v 32.718789 q 0,6.03937 -2.7874,9.02587 -2.7874,2.9865 -7.16761,2.9865 -4.44657,0 -7.10123,-2.9865 -2.65467,-3.05287 -2.65467,-9.02587 V 30.431715 q 0,-5.973004 2.5883,-8.959505 2.65467,-2.986502 7.1676,-2.986502 4.44657,0 7.16761,2.986502 2.7874,2.920135 2.7874,8.959505 z"
           id="path1340" />
        <path
           d="m 325.95205,86.710678 h -35.43982 q 0.0664,6.172103 2.45557,10.884139 2.45557,4.712033 6.43757,7.101233 4.04837,2.38921 8.89314,2.38921 3.25197,0 5.90663,-0.73004 2.72104,-0.7964 5.24297,-2.3892 2.52194,-1.65917 4.64567,-3.51743 2.12374,-1.858272 5.50844,-5.043874 1.3937,-1.194601 3.982,-1.194601 2.7874,0 4.51294,1.526435 1.72553,1.526434 1.72553,4.31384 0,2.45556 -1.92463,5.7739 -1.92464,3.25197 -5.84027,6.30484 -3.84927,2.9865 -9.75591,4.9775 -5.84027,1.991 -13.47244,1.991 -17.45444,0 -27.14398,-9.95501 -9.68954,-9.955002 -9.68954,-27.011244 0,-8.030371 2.3892,-14.866142 2.3892,-6.902137 6.96851,-11.813273 4.5793,-4.911136 11.28234,-7.499437 6.70303,-2.654668 14.86614,-2.654668 10.61867,0 18.18447,4.512936 7.63217,4.446569 11.41508,11.547806 3.7829,7.101237 3.7829,14.467941 0,6.83577 -3.91564,8.893138 -3.91563,1.991001 -11.01687,1.991001 z M 290.51223,76.423839 h 32.85152 q -0.66367,-9.291338 -5.04387,-13.870641 -4.31384,-4.645669 -11.41507,-4.645669 -6.76941,0 -11.14961,4.712036 -4.31383,4.645669 -5.24297,13.804274 z"
           id="path1342" />
        <path
           d="m 401.94193,108.87716 q -6.57031,5.11023 -12.74241,7.69853 -6.10574,2.52194 -13.73791,2.52194 -6.9685,0 -12.27784,-2.72104 -5.24297,-2.7874 -8.09673,-7.49943 -2.85377,-4.71204 -2.85377,-10.220475 0,-7.433071 4.71203,-12.676041 4.71204,-5.242969 12.94151,-7.03487 1.72554,-0.3982 8.56131,-1.791901 6.83577,-1.393701 11.68054,-2.521935 4.91113,-1.1946 10.61867,-2.853768 -0.33184,-7.167604 -2.92014,-10.485939 -2.52193,-3.384702 -10.5523,-3.384702 -6.90214,0 -10.41958,1.924635 -3.45106,1.924634 -5.973,5.773903 -2.45557,3.849269 -3.51743,5.110236 -0.9955,1.194601 -4.38021,1.194601 -3.05286,0 -5.30933,-1.924635 -2.1901,-1.991001 -2.1901,-5.043869 0,-4.778403 3.3847,-9.291339 3.3847,-4.512935 10.5523,-7.43307 7.16761,-2.920135 17.85265,-2.920135 11.946,0 18.78177,2.853768 6.83577,2.787402 9.62318,8.893138 2.85376,6.105737 2.85376,16.193476 0,6.371203 -0.0664,10.817772 0,4.446569 -0.0664,9.888639 0,5.110236 1.65917,10.685041 1.72553,5.50843 1.72553,7.10123 0,2.78741 -2.65467,5.11024 -2.5883,2.25647 -5.90663,2.25647 -2.7874,0 -5.50844,-2.5883 -2.72103,-2.65467 -5.7739,-7.63217 z m -1.1946,-26.214851 q -3.982,1.460068 -11.61418,3.119235 -7.5658,1.592801 -10.48593,2.389202 -2.92014,0.730033 -5.57481,2.986501 -2.65467,2.190101 -2.65467,6.172104 0,4.114739 3.11924,7.034869 3.11923,2.85377 8.1631,2.85377 5.37571,0 9.88864,-2.32284 4.57931,-2.3892 6.70304,-6.105732 2.45557,-4.114736 2.45557,-13.538807 z"
           id="path1344" />
        <path
           d="M 436.9172,108.08076 V 29.502581 q 0,-5.44207 2.3892,-8.229471 2.45557,-2.787402 6.5703,-2.787402 4.11474,0 6.63667,2.787402 2.52194,2.721034 2.52194,8.229471 v 78.578179 q 0,5.50843 -2.5883,8.29583 -2.52194,2.72104 -6.57031,2.72104 -3.982,0 -6.50393,-2.85377 -2.45557,-2.85377 -2.45557,-8.1631 z"
           id="path1346" />
        <path
           d="m 474.7462,47.02339 h 1.991 V 36.139251 q 0,-4.380202 0.1991,-6.83577 0.26546,-2.521935 1.32733,-4.313836 1.06187,-1.858268 3.05287,-2.986502 1.991,-1.1946 4.44657,-1.1946 3.45107,0 6.23847,2.588301 1.85827,1.725534 2.32283,4.247469 0.53094,2.455568 0.53094,7.034871 V 47.02339 h 6.63667 q 3.84927,0 5.84027,1.858268 2.05736,1.791901 2.05736,4.645669 0,3.650169 -2.92013,5.110236 -2.85377,1.460068 -8.22947,1.460068 h -3.3847 v 33.316084 q 0,4.247469 0.26546,6.570304 0.33184,2.256471 1.5928,3.716531 1.32734,1.3937 4.24747,1.3937 1.5928,0 4.31384,-0.53093 2.72103,-0.5973 4.24747,-0.5973 2.1901,0 3.91563,1.7919 1.7919,1.72554 1.7919,4.31384 0,4.3802 -4.7784,6.70303 -4.7784,2.32284 -13.73791,2.32284 -8.49493,0 -12.87514,-2.85377 -4.3802,-2.85377 -5.7739,-7.89764 -1.32733,-5.04387 -1.32733,-13.472437 V 60.097631 h -2.3892 q -3.91564,0 -5.97301,-1.858268 -2.05737,-1.858268 -2.05737,-4.712036 0,-2.853768 2.12374,-4.645669 2.1901,-1.858268 6.30484,-1.858268 z"
           id="path1348" />
        <path
           d="m 539.58648,29.502581 v 26.878514 q 3.45107,-3.982002 6.70304,-6.304837 3.31833,-2.322834 7.30033,-3.451068 3.98201,-1.194601 8.56131,-1.194601 6.90214,0 12.21147,2.920135 5.3757,2.920135 8.42857,8.494938 1.92464,3.251969 2.5883,7.300337 0.66367,3.982002 0.66367,9.224972 v 34.709789 q 0,5.44207 -2.52193,8.22947 -2.45557,2.7874 -6.57031,2.7874 -8.9595,0 -8.9595,-11.01687 V 77.485707 q 0,-8.694038 -2.5883,-13.339708 -2.5883,-4.712036 -9.82227,-4.712036 -4.84477,0 -8.76041,2.787402 -3.84927,2.721035 -5.7739,7.499437 -1.46007,4.048369 -1.46007,14.401575 v 23.958383 q 0,5.3757 -2.45557,8.22947 -2.3892,2.7874 -6.70304,2.7874 -8.9595,0 -8.9595,-11.01687 V 29.502581 q 0,-5.508437 2.32283,-8.229471 2.38921,-2.787402 6.63667,-2.787402 4.31384,0 6.70304,2.787402 2.45557,2.787401 2.45557,8.229471 z"
           id="path1350" />
      </g>
      <g
         aria-label="Sure"
         id="text5307"
         style="font-size:135.919px;line-height:1.25;font-family:'Arial Rounded MT Bold';-inkscape-font-specification:'Arial Rounded MT Bold, Normal';fill:#65ce3e;stroke-width:3.39799">
        <path
           d="m 684.03342,88.237112 q 0,8.826772 -4.5793,15.861638 -4.51294,7.03487 -13.27335,11.01688 -8.7604,3.982 -20.77277,3.982 -14.40158,0 -23.75928,-5.44207 -6.63667,-3.91564 -10.81778,-10.41957 -4.11473,-6.570307 -4.11473,-12.74241 0,-3.583802 2.45557,-6.105736 2.52193,-2.588302 6.3712,-2.588302 3.11924,0 5.24297,1.991001 2.1901,1.991001 3.71654,5.906637 1.85826,4.645669 3.982,7.764904 2.1901,3.119236 6.10573,5.176606 3.91564,1.991 10.28684,1.991 8.76041,0 14.20248,-4.04837 5.50843,-4.114737 5.50843,-10.220473 0,-4.84477 -2.9865,-7.831271 -2.92013,-3.052868 -7.63217,-4.645669 -4.64567,-1.592801 -12.47694,-3.384702 -10.48594,-2.455568 -17.58717,-5.707536 -7.03488,-3.318336 -11.21598,-8.959505 -4.11473,-5.707537 -4.11473,-14.136108 0,-8.030371 4.3802,-14.268841 4.3802,-6.23847 12.67604,-9.556805 8.29584,-3.384702 19.51181,-3.384702 8.9595,0 15.46344,2.256468 6.57031,2.190101 10.88414,5.906637 4.31384,3.650168 6.30484,7.698537 1.991,4.048369 1.991,7.897638 0,3.517435 -2.52194,6.371203 -2.45556,2.787401 -6.1721,2.787401 -3.3847,0 -5.1766,-1.659167 -1.72554,-1.725534 -3.7829,-5.574803 -2.65467,-5.508436 -6.37121,-8.561305 -3.71653,-3.119235 -11.946,-3.119235 -7.63217,0 -12.34421,3.384702 -4.64567,3.318335 -4.64567,8.030371 0,2.920135 1.5928,5.04387 1.5928,2.123734 4.3802,3.650168 2.7874,1.526434 5.64117,2.389201 2.85377,0.862768 9.42407,2.521935 8.22948,1.924634 14.86615,4.247469 6.70303,2.322835 11.3487,5.64117 4.71204,3.318335 7.30034,8.428571 2.65467,5.043869 2.65467,12.410573 z"
           id="path1353" />
        <path
           d="m 746.55085,108.87716 v -2.32284 q -3.25197,4.11474 -6.83577,6.90214 -3.5838,2.7874 -7.83127,4.11473 -4.24747,1.39371 -9.68954,1.39371 -6.5703,0 -11.81327,-2.72104 -5.17661,-2.72103 -8.03037,-7.49944 -3.38471,-5.7739 -3.38471,-16.591672 V 56.248362 q 0,-5.44207 2.45557,-8.096738 2.45557,-2.721035 6.50394,-2.721035 4.11473,0 6.63667,2.721035 2.52193,2.721035 2.52193,8.096738 v 29.002249 q 0,6.304836 1.06187,10.618672 1.06187,4.247467 3.7829,6.703037 2.7874,2.3892 7.49944,2.3892 4.5793,0 8.62767,-2.72103 4.04837,-2.721038 5.90664,-7.101241 1.52643,-3.849268 1.52643,-16.857142 V 56.248362 q 0,-5.375703 2.52194,-8.096738 2.52193,-2.721035 6.5703,-2.721035 4.04837,0 6.50394,2.721035 2.45557,2.654668 2.45557,8.096738 v 52.496058 q 0,5.17661 -2.38921,7.76491 -2.32283,2.5883 -6.03937,2.5883 -3.71653,0 -6.1721,-2.65467 -2.3892,-2.72103 -2.3892,-7.5658 z"
           id="path1355" />
        <path
           d="m 799.57785,92.949148 v 15.131612 q 0,5.50843 -2.5883,8.29583 -2.5883,2.72104 -6.5703,2.72104 -3.91564,0 -6.43757,-2.7874 -2.52194,-2.7874 -2.52194,-8.22947 V 57.642063 q 0,-12.211474 8.82677,-12.211474 4.51294,0 6.50394,2.853768 1.991,2.853769 2.1901,8.428572 3.25197,-5.574803 6.63667,-8.428572 3.45107,-2.853768 9.15861,-2.853768 5.70753,0 11.08324,2.853768 5.3757,2.853769 5.3757,7.565805 0,3.318335 -2.32283,5.508436 -2.25647,2.123734 -4.91114,2.123734 -0.9955,0 -4.84477,-1.1946 -3.7829,-1.260968 -6.70304,-1.260968 -3.982,0 -6.50393,2.123735 -2.52194,2.057368 -3.91564,6.172103 -1.3937,4.114736 -1.92463,9.822272 -0.53094,5.64117 -0.53094,13.804274 z"
           id="path1357" />
        <path
           d="m 888.31013,86.710678 h -35.43982 q 0.0664,6.172103 2.45557,10.884139 2.45557,4.712033 6.43757,7.101233 4.04837,2.38921 8.89314,2.38921 3.25196,0 5.90663,-0.73004 2.72104,-0.7964 5.24297,-2.3892 2.52194,-1.65917 4.64567,-3.51743 2.12374,-1.858272 5.50844,-5.043874 1.3937,-1.194601 3.982,-1.194601 2.7874,0 4.51294,1.526435 1.72553,1.526434 1.72553,4.31384 0,2.45556 -1.92463,5.7739 -1.92464,3.25197 -5.84027,6.30484 -3.84927,2.9865 -9.75591,4.9775 -5.84027,1.991 -13.47244,1.991 -17.45444,0 -27.14398,-9.95501 -9.68954,-9.955002 -9.68954,-27.011244 0,-8.030371 2.3892,-14.866142 2.3892,-6.902137 6.9685,-11.813273 4.57931,-4.911136 11.28234,-7.499437 6.70304,-2.654668 14.86615,-2.654668 10.61867,0 18.18447,4.512936 7.63217,4.446569 11.41507,11.547806 3.78291,7.101237 3.78291,14.467941 0,6.83577 -3.91564,8.893138 -3.91563,1.991001 -11.01687,1.991001 z M 852.87031,76.423839 h 32.85152 q -0.66367,-9.291338 -5.04387,-13.870641 -4.31384,-4.645669 -11.41507,-4.645669 -6.76941,0 -11.14961,4.712036 -4.31384,4.645669 -5.24297,13.804274 z"
           id="path1359" />
      </g>
    </g>
  </g>
</svg>
